<mxfile host="Electron" agent="Mozilla/5.0 (Windows NT 10.0; Win64; x64) AppleWebKit/537.36 (KHTML, like Gecko) draw.io/28.1.2 Chrome/138.0.7204.243 Electron/37.4.0 Safari/537.36" version="28.1.2">
  <diagram name="ページ1" id="Th_FbpuYaA8UgCCkZX4E">
    <mxGraphModel dx="786" dy="516" grid="0" gridSize="10" guides="1" tooltips="1" connect="1" arrows="1" fold="1" page="1" pageScale="1" pageWidth="827" pageHeight="1169" math="0" shadow="0">
      <root>
        <mxCell id="0" />
        <mxCell id="1" parent="0" />
        <mxCell id="u15gTBCA14xIpoxDGnui-5" value="user" style="shape=umlActor;verticalLabelPosition=bottom;verticalAlign=top;html=1;outlineConnect=0;" parent="1" vertex="1">
          <mxGeometry x="120" y="686" width="46" height="97" as="geometry" />
        </mxCell>
        <mxCell id="pOlQM6vGLwMM23GjErHc-3" value="メニュー画面" style="shape=umlBoundary;whiteSpace=wrap;html=1;" vertex="1" parent="1">
          <mxGeometry x="337" y="602" width="164" height="124" as="geometry" />
        </mxCell>
        <mxCell id="pOlQM6vGLwMM23GjErHc-4" value="" style="endArrow=classic;html=1;rounded=0;exitX=1;exitY=0.3333333333333333;exitDx=0;exitDy=0;exitPerimeter=0;entryX=0.014;entryY=0.514;entryDx=0;entryDy=0;entryPerimeter=0;" edge="1" parent="1" source="u15gTBCA14xIpoxDGnui-5" target="pOlQM6vGLwMM23GjErHc-3">
          <mxGeometry width="50" height="50" relative="1" as="geometry">
            <mxPoint x="163" y="720.3333333333333" as="sourcePoint" />
            <mxPoint x="465" y="720" as="targetPoint" />
          </mxGeometry>
        </mxCell>
        <mxCell id="pOlQM6vGLwMM23GjErHc-5" value="メニュー画面をクリックする" style="text;html=1;align=center;verticalAlign=middle;whiteSpace=wrap;rounded=0;" vertex="1" parent="1">
          <mxGeometry x="143" y="607" width="173" height="69" as="geometry" />
        </mxCell>
        <mxCell id="pOlQM6vGLwMM23GjErHc-6" value="表示（する）" style="ellipse;shape=umlControl;whiteSpace=wrap;html=1;" vertex="1" parent="1">
          <mxGeometry x="577" y="692" width="70" height="80" as="geometry" />
        </mxCell>
        <mxCell id="pOlQM6vGLwMM23GjErHc-7" value="" style="endArrow=classic;html=1;rounded=0;exitX=0.941;exitY=0.766;exitDx=0;exitDy=0;exitPerimeter=0;entryX=0.019;entryY=0.46;entryDx=0;entryDy=0;entryPerimeter=0;" edge="1" parent="1" source="pOlQM6vGLwMM23GjErHc-3" target="pOlQM6vGLwMM23GjErHc-6">
          <mxGeometry width="50" height="50" relative="1" as="geometry">
            <mxPoint x="255" y="761" as="sourcePoint" />
            <mxPoint x="727" y="723" as="targetPoint" />
          </mxGeometry>
        </mxCell>
        <mxCell id="pOlQM6vGLwMM23GjErHc-9" value="学生登録画面" style="shape=umlBoundary;whiteSpace=wrap;html=1;" vertex="1" parent="1">
          <mxGeometry x="364" y="764" width="100" height="80" as="geometry" />
        </mxCell>
        <mxCell id="pOlQM6vGLwMM23GjErHc-10" value="" style="endArrow=classic;html=1;rounded=0;exitX=0.048;exitY=0.844;exitDx=0;exitDy=0;exitPerimeter=0;entryX=0.963;entryY=0.375;entryDx=0;entryDy=0;entryPerimeter=0;" edge="1" parent="1" source="pOlQM6vGLwMM23GjErHc-6" target="pOlQM6vGLwMM23GjErHc-9">
          <mxGeometry width="50" height="50" relative="1" as="geometry">
            <mxPoint x="576" y="704" as="sourcePoint" />
            <mxPoint x="873" y="633" as="targetPoint" />
          </mxGeometry>
        </mxCell>
        <mxCell id="pOlQM6vGLwMM23GjErHc-11" value="" style="endArrow=classic;html=1;rounded=0;exitX=1;exitY=0.3333333333333333;exitDx=0;exitDy=0;exitPerimeter=0;entryX=-0.03;entryY=0.463;entryDx=0;entryDy=0;entryPerimeter=0;" edge="1" parent="1" source="u15gTBCA14xIpoxDGnui-5" target="pOlQM6vGLwMM23GjErHc-9">
          <mxGeometry width="50" height="50" relative="1" as="geometry">
            <mxPoint x="718" y="917" as="sourcePoint" />
            <mxPoint x="1015" y="846" as="targetPoint" />
          </mxGeometry>
        </mxCell>
        <mxCell id="pOlQM6vGLwMM23GjErHc-12" value="学生情報を入力する" style="text;html=1;align=center;verticalAlign=middle;whiteSpace=wrap;rounded=0;" vertex="1" parent="1">
          <mxGeometry x="182" y="777" width="159" height="63" as="geometry" />
        </mxCell>
        <mxCell id="pOlQM6vGLwMM23GjErHc-13" value="学生情報を登録（する）" style="ellipse;shape=umlControl;whiteSpace=wrap;html=1;" vertex="1" parent="1">
          <mxGeometry x="552" y="846" width="69" height="80" as="geometry" />
        </mxCell>
        <mxCell id="pOlQM6vGLwMM23GjErHc-14" value="" style="endArrow=classic;html=1;rounded=0;exitX=0.877;exitY=0.808;exitDx=0;exitDy=0;exitPerimeter=0;entryX=0.077;entryY=0.392;entryDx=0;entryDy=0;entryPerimeter=0;" edge="1" parent="1" source="pOlQM6vGLwMM23GjErHc-9" target="pOlQM6vGLwMM23GjErHc-13">
          <mxGeometry width="50" height="50" relative="1" as="geometry">
            <mxPoint x="827" y="774" as="sourcePoint" />
            <mxPoint x="649" y="820" as="targetPoint" />
          </mxGeometry>
        </mxCell>
        <mxCell id="pOlQM6vGLwMM23GjErHc-15" value="学生オブジェクト&lt;div&gt;（データ）&lt;/div&gt;" style="ellipse;shape=umlEntity;whiteSpace=wrap;html=1;" vertex="1" parent="1">
          <mxGeometry x="709" y="844" width="106" height="99" as="geometry" />
        </mxCell>
        <mxCell id="pOlQM6vGLwMM23GjErHc-16" value="" style="endArrow=classic;startArrow=classic;html=1;rounded=0;entryX=0;entryY=0.5;entryDx=0;entryDy=0;exitX=1.01;exitY=0.55;exitDx=0;exitDy=0;exitPerimeter=0;strokeColor=light-dark(#ff0000, #ededed);" edge="1" parent="1" source="pOlQM6vGLwMM23GjErHc-13" target="pOlQM6vGLwMM23GjErHc-15">
          <mxGeometry width="50" height="50" relative="1" as="geometry">
            <mxPoint x="561" y="874" as="sourcePoint" />
            <mxPoint x="611" y="824" as="targetPoint" />
          </mxGeometry>
        </mxCell>
        <mxCell id="pOlQM6vGLwMM23GjErHc-17" value="・登録の成功、失敗&lt;div&gt;・既に登録されているかもしれない&lt;/div&gt;" style="text;html=1;align=center;verticalAlign=middle;whiteSpace=wrap;rounded=0;" vertex="1" parent="1">
          <mxGeometry x="565" y="959" width="204" height="44" as="geometry" />
        </mxCell>
        <mxCell id="pOlQM6vGLwMM23GjErHc-18" value="&lt;font style=&quot;font-size: 18px;&quot;&gt;・境界オブジェクト&lt;/font&gt;&lt;div&gt;&lt;font style=&quot;font-size: 18px;&quot;&gt;・制御オブジェクト&lt;/font&gt;&lt;/div&gt;&lt;div&gt;&lt;font style=&quot;font-size: 18px;&quot;&gt;・実態オブジェクト&lt;/font&gt;&lt;/div&gt;" style="text;html=1;align=center;verticalAlign=middle;whiteSpace=wrap;rounded=0;" vertex="1" parent="1">
          <mxGeometry x="117" y="902" width="185" height="115" as="geometry" />
        </mxCell>
      </root>
    </mxGraphModel>
  </diagram>
</mxfile>
